<?xml version="1.0" encoding="UTF-8"?>
<svg width="861px" height="561px" viewBox="0 0 861 561" version="1.1" xmlns="http://www.w3.org/2000/svg" xmlns:xlink="http://www.w3.org/1999/xlink">
    <!-- Generator: Sketch 52.5 (67469) - http://www.bohemiancoding.com/sketch -->
    <title>NoPicture</title>
    <desc>Created with Sketch.</desc>
    <g id="Style" stroke="none" stroke-width="1" fill="none" fill-rule="evenodd">
        <g id="NoPicture">
            <rect id="Rectangle-Copy" fill="#D8D8D8" x="0.009765625" y="0.7265625" width="860" height="560"></rect>
            <g transform="translate(3.000000, 5.000000)" fill="#FFFFFF">
                <polygon id="Line-2" fill-rule="nonzero" points="507.857148 332.641316 511.085246 327.58371 850.642852 544.311809 847.414754 549.369415"></polygon>
                <polygon id="Line-2" fill-rule="nonzero" points="1.3550716 5.13186275 4.59469975 0.0816340973 347.144928 219.821262 343.9053 224.871491"></polygon>
                <polygon id="Line-2" fill-rule="nonzero" transform="translate(172.250000, 438.476563) scale(-1, 1) translate(-172.250000, -438.476563) " points="0.857147682 332.641316 4.08524611 327.58371 343.642852 544.311809 340.414754 549.369415"></polygon>
                <polygon id="Line-2" fill-rule="nonzero" transform="translate(678.250000, 112.476562) scale(-1, 1) translate(-678.250000, -112.476562) " points="505.355072 5.13186275 508.5947 0.0816340973 851.144928 219.821262 847.9053 224.871491"></polygon>
                <g id="Group-11-Copy" transform="translate(359.500000, 226.226562)">
                    <g id="Group-13">
                        <path d="M47.7466264,9.09667969 L49.3378906,0.344726562 L83.3378906,0.344726562 L84.9291548,9.09667969 L132.337891,9.09667969 L132.337891,98.1308594 L0.337890625,98.1308594 L0.337890625,9.09667969 L47.7466264,9.09667969 Z M66.3378906,84.7382812 C82.3716769,84.7382812 95.3696289,71.7403293 95.3696289,55.706543 C95.3696289,39.6727567 82.3716769,26.6748047 66.3378906,26.6748047 C50.3041043,26.6748047 37.3061523,39.6727567 37.3061523,55.706543 C37.3061523,71.7403293 50.3041043,84.7382812 66.3378906,84.7382812 Z M99.3696289,30.6748047 C101.578768,30.6748047 103.369629,28.8839437 103.369629,26.6748047 C103.369629,24.4656657 101.578768,22.6748047 99.3696289,22.6748047 C97.1604899,22.6748047 95.3696289,24.4656657 95.3696289,26.6748047 C95.3696289,28.8839437 97.1604899,30.6748047 99.3696289,30.6748047 Z" id="Combined-Shape"></path>
                        <path d="M66.3378906,77.7382812 C78.5056837,77.7382812 88.3696289,67.874336 88.3696289,55.706543 C88.3696289,43.5387499 78.5056837,33.6748047 66.3378906,33.6748047 C54.1700976,33.6748047 44.3061523,43.5387499 44.3061523,55.706543 C44.3061523,67.874336 54.1700976,77.7382812 66.3378906,77.7382812 Z" id="Path" fill-rule="nonzero"></path>
                        <rect id="Rectangle" x="6.82226562" y="6" width="13" height="3"></rect>
                    </g>
                </g>
            </g>
        </g>
    </g>
</svg>